<mxfile host="app.diagrams.net" agent="Mozilla/5.0 (Windows NT 10.0; Win64; x64) AppleWebKit/537.36 (KHTML, like Gecko) Chrome/133.0.0.0 Safari/537.36" version="26.0.16">
  <diagram name="Page-1" id="xsTr7ZCg_U6nujBABxX4">
    <mxGraphModel dx="1434" dy="738" grid="1" gridSize="10" guides="1" tooltips="1" connect="1" arrows="1" fold="1" page="1" pageScale="1" pageWidth="850" pageHeight="1100" math="0" shadow="0">
      <root>
        <mxCell id="0" />
        <mxCell id="1" parent="0" />
        <mxCell id="cAqT-bqc4PRpvHakGV8s-17" value="Amazon EKS" style="sketch=0;outlineConnect=0;fontColor=#232F3E;gradientColor=none;strokeColor=#ffffff;fillColor=#232F3E;dashed=0;verticalLabelPosition=middle;verticalAlign=bottom;align=center;html=1;whiteSpace=wrap;fontSize=10;fontStyle=1;spacing=3;shape=mxgraph.aws4.productIcon;prIcon=mxgraph.aws4.eks;" vertex="1" parent="1">
          <mxGeometry x="600" y="430" width="80" height="100" as="geometry" />
        </mxCell>
        <mxCell id="cAqT-bqc4PRpvHakGV8s-20" value="ArgoCD" style="rounded=0;whiteSpace=wrap;html=1;" vertex="1" parent="1">
          <mxGeometry x="560" y="273" width="160" height="80" as="geometry" />
        </mxCell>
        <mxCell id="cAqT-bqc4PRpvHakGV8s-23" value="" style="outlineConnect=0;dashed=0;verticalLabelPosition=bottom;verticalAlign=top;align=center;html=1;shape=mxgraph.aws3.ec2;fillColor=#F58534;gradientColor=none;" vertex="1" parent="1">
          <mxGeometry x="840" y="168.5" width="76.5" height="93" as="geometry" />
        </mxCell>
        <mxCell id="cAqT-bqc4PRpvHakGV8s-25" value="EC2" style="text;html=1;align=center;verticalAlign=middle;resizable=0;points=[];autosize=1;strokeColor=none;fillColor=none;" vertex="1" parent="1">
          <mxGeometry x="803.25" y="273" width="50" height="30" as="geometry" />
        </mxCell>
        <mxCell id="cAqT-bqc4PRpvHakGV8s-26" value="Python App" style="text;html=1;align=center;verticalAlign=middle;resizable=0;points=[];autosize=1;strokeColor=none;fillColor=none;" vertex="1" parent="1">
          <mxGeometry x="10" y="190" width="80" height="30" as="geometry" />
        </mxCell>
        <mxCell id="cAqT-bqc4PRpvHakGV8s-36" value="" style="edgeStyle=orthogonalEdgeStyle;rounded=0;orthogonalLoop=1;jettySize=auto;html=1;" edge="1" parent="1" source="cAqT-bqc4PRpvHakGV8s-27" target="cAqT-bqc4PRpvHakGV8s-29">
          <mxGeometry relative="1" as="geometry" />
        </mxCell>
        <mxCell id="cAqT-bqc4PRpvHakGV8s-27" value="" style="shape=image;html=1;verticalAlign=top;verticalLabelPosition=bottom;labelBackgroundColor=#ffffff;imageAspect=0;aspect=fixed;image=https://cdn4.iconfinder.com/data/icons/socialcones/508/Gitlab-128.png" vertex="1" parent="1">
          <mxGeometry x="260" y="120" width="80" height="80" as="geometry" />
        </mxCell>
        <mxCell id="cAqT-bqc4PRpvHakGV8s-28" value="Build" style="text;html=1;align=center;verticalAlign=middle;resizable=0;points=[];autosize=1;strokeColor=none;fillColor=none;" vertex="1" parent="1">
          <mxGeometry x="270" y="200" width="50" height="30" as="geometry" />
        </mxCell>
        <mxCell id="cAqT-bqc4PRpvHakGV8s-38" value="" style="edgeStyle=orthogonalEdgeStyle;rounded=0;orthogonalLoop=1;jettySize=auto;html=1;" edge="1" parent="1" source="cAqT-bqc4PRpvHakGV8s-29" target="cAqT-bqc4PRpvHakGV8s-37">
          <mxGeometry relative="1" as="geometry" />
        </mxCell>
        <mxCell id="cAqT-bqc4PRpvHakGV8s-29" value="" style="shape=image;html=1;verticalAlign=top;verticalLabelPosition=bottom;labelBackgroundColor=#ffffff;imageAspect=0;aspect=fixed;image=https://cdn4.iconfinder.com/data/icons/socialcones/508/Gitlab-128.png" vertex="1" parent="1">
          <mxGeometry x="410" y="120" width="80" height="80" as="geometry" />
        </mxCell>
        <mxCell id="cAqT-bqc4PRpvHakGV8s-35" value="" style="edgeStyle=orthogonalEdgeStyle;rounded=0;orthogonalLoop=1;jettySize=auto;html=1;" edge="1" parent="1" source="cAqT-bqc4PRpvHakGV8s-30" target="cAqT-bqc4PRpvHakGV8s-27">
          <mxGeometry relative="1" as="geometry" />
        </mxCell>
        <mxCell id="cAqT-bqc4PRpvHakGV8s-30" value="" style="shape=image;html=1;verticalAlign=top;verticalLabelPosition=bottom;labelBackgroundColor=#ffffff;imageAspect=0;aspect=fixed;image=https://cdn4.iconfinder.com/data/icons/socialcones/508/Gitlab-128.png" vertex="1" parent="1">
          <mxGeometry x="120" y="120" width="80" height="80" as="geometry" />
        </mxCell>
        <mxCell id="cAqT-bqc4PRpvHakGV8s-31" value="&lt;span style=&quot;text-wrap-mode: wrap;&quot;&gt;Test&amp;nbsp;&lt;/span&gt;" style="text;html=1;align=center;verticalAlign=middle;resizable=0;points=[];autosize=1;strokeColor=none;fillColor=none;" vertex="1" parent="1">
          <mxGeometry x="140" y="200" width="50" height="30" as="geometry" />
        </mxCell>
        <mxCell id="cAqT-bqc4PRpvHakGV8s-33" value="" style="edgeStyle=orthogonalEdgeStyle;rounded=0;orthogonalLoop=1;jettySize=auto;html=1;" edge="1" parent="1" source="cAqT-bqc4PRpvHakGV8s-32" target="cAqT-bqc4PRpvHakGV8s-30">
          <mxGeometry relative="1" as="geometry" />
        </mxCell>
        <mxCell id="cAqT-bqc4PRpvHakGV8s-32" value="" style="html=1;verticalLabelPosition=bottom;labelBackgroundColor=#ffffff;verticalAlign=top;shadow=0;dashed=0;strokeWidth=2;shape=mxgraph.ios7.misc.current_location;strokeColor=#ffffff;fillColor=#0080F0;sketch=0;" vertex="1" parent="1">
          <mxGeometry x="10" y="130" width="60" height="60" as="geometry" />
        </mxCell>
        <mxCell id="cAqT-bqc4PRpvHakGV8s-34" value="Push" style="text;html=1;align=center;verticalAlign=middle;resizable=0;points=[];autosize=1;strokeColor=none;fillColor=none;" vertex="1" parent="1">
          <mxGeometry x="420" y="200" width="50" height="30" as="geometry" />
        </mxCell>
        <mxCell id="cAqT-bqc4PRpvHakGV8s-40" value="" style="edgeStyle=orthogonalEdgeStyle;rounded=0;orthogonalLoop=1;jettySize=auto;html=1;" edge="1" parent="1" source="cAqT-bqc4PRpvHakGV8s-37" target="cAqT-bqc4PRpvHakGV8s-20">
          <mxGeometry relative="1" as="geometry" />
        </mxCell>
        <mxCell id="cAqT-bqc4PRpvHakGV8s-37" value="DockerHub/GitLab Registry" style="rounded=0;whiteSpace=wrap;html=1;" vertex="1" parent="1">
          <mxGeometry x="560" y="120" width="160" height="80" as="geometry" />
        </mxCell>
        <mxCell id="cAqT-bqc4PRpvHakGV8s-41" value="&amp;lt;&amp;lt;deploy&amp;gt;&amp;gt;" style="html=1;verticalAlign=bottom;labelBackgroundColor=none;endArrow=open;endFill=0;dashed=1;rounded=0;" edge="1" parent="1" target="cAqT-bqc4PRpvHakGV8s-17">
          <mxGeometry x="0.1429" y="40" width="160" relative="1" as="geometry">
            <mxPoint x="640" y="360" as="sourcePoint" />
            <mxPoint x="720" y="400" as="targetPoint" />
            <mxPoint as="offset" />
          </mxGeometry>
        </mxCell>
        <mxCell id="cAqT-bqc4PRpvHakGV8s-43" value="&amp;lt;&amp;lt;deploy&amp;gt;&amp;gt;" style="html=1;verticalAlign=bottom;labelBackgroundColor=none;endArrow=open;endFill=0;dashed=1;rounded=0;" edge="1" parent="1" target="cAqT-bqc4PRpvHakGV8s-23">
          <mxGeometry x="0.5429" y="15" width="160" relative="1" as="geometry">
            <mxPoint x="720" y="159.5" as="sourcePoint" />
            <mxPoint x="790" y="160" as="targetPoint" />
            <Array as="points">
              <mxPoint x="760" y="160" />
              <mxPoint x="760" y="215" />
            </Array>
            <mxPoint as="offset" />
          </mxGeometry>
        </mxCell>
      </root>
    </mxGraphModel>
  </diagram>
</mxfile>
